PathFileType	4	(X/Y/Z)	D:\TRACE\v60_Jaco2_6-2-23\JustBodyDRS_Motion2_6-v60.trc
DataRate	CameraRate	NumFrames	NumMarkers	Units	OrigDataRate	OrigDataStartFrame	OrigNumFrames
100.00	100.00	      20	9	mm	100.00	2528	      6741
Frame#	Time	front left toe			Front right toe			aft left toe			aft right toe			Arm			FL body			FR body			AL Body			AR Body			
		X1	Y1	Z1	X2	Y2	Z2	X3	Y3	Z3	X4	Y4	Z4	X5	Y5	Z5	X6	Y6	Z6	X7	Y7	Z7	X8	Y8	Z8	X9	Y9	Z9	

2528	25.270	-183.04483	57.48123	-167.37112	238.85297	9.37252	-282.05539	-96.38467	22.49011	383.70612	196.25496	70.43818	443.96283	-117.93851	1219.88135	-361.04871	-72.82523	587.25311	-381.31348	87.26750	591.79724	-393.78772	0.52693	555.88080	561.43164	154.86905	552.88013	547.76276	
2529	25.280	-185.09071	69.08569	-172.89432	238.01308	8.88673	-281.95517	-97.22352	23.02026	383.55334	200.31233	83.11240	436.87781	-118.24680	1217.52429	-366.35828	-73.55925	586.19934	-383.68625	86.14213	590.88641	-396.08124	0.35367	556.94708	558.86121	154.84193	554.46899	546.52716	
2530	25.290	-187.73358	80.78701	-179.65244	237.22408	8.23635	-282.71756	-97.63338	23.37778	383.08939	204.32874	95.01882	428.95499	-118.58312	1215.12268	-371.65866	-74.59450	585.18829	-386.37100	85.57189	590.18097	-398.85052	-0.79320	557.62604	556.30927	156.98972	556.94257	546.26459	
2531	25.300	-190.22812	92.19852	-187.41714	236.72069	7.69755	-283.06631	-98.48579	23.84617	382.65131	207.45276	106.59359	419.16702	-119.50135	1213.40710	-376.45129	-75.33551	583.71960	-388.76163	84.14776	588.84589	-400.60593	-2.09831	558.22949	553.94202	155.79616	557.91650	543.74231	
2532	25.310	-191.69337	103.27717	-195.63091	236.13519	6.77995	-283.32394	-99.41990	24.35888	382.22653	209.26379	118.50171	409.06009	-120.88388	1212.61694	-380.50006	-76.09042	582.06329	-391.01028	83.79132	587.52484	-403.47287	-2.96677	559.73389	551.80188	151.30605	557.42859	539.38635	
2533	25.320	-193.27036	113.25085	-203.85518	235.58272	6.03029	-283.65985	-100.10809	24.85334	381.85471	209.24721	129.82654	399.70013	-122.45934	1212.24292	-383.80118	-77.03709	580.78656	-393.47995	82.64106	585.68951	-405.53296	-4.39629	560.52979	549.87811	148.56914	558.95154	537.35309	
2534	25.330	-194.59929	123.29752	-211.88782	234.70201	5.28114	-284.08102	-100.87902	25.64834	381.62469	207.53040	140.50746	391.03677	-123.67038	1211.70178	-387.15500	-77.96989	579.50696	-395.79196	81.83588	584.73773	-408.68427	-6.07368	562.14563	547.33081	152.24278	562.67297	538.36298	
2535	25.340	-196.27292	131.76917	-219.79524	234.32147	4.82464	-284.09329	-101.34373	26.22089	381.19226	206.66469	150.40567	383.44812	-124.43929	1210.49463	-390.76971	-78.73856	578.59924	-398.14044	80.98058	583.65210	-410.28726	-7.61691	563.43256	545.10773	150.55135	563.94745	536.51837	
2536	25.350	-198.54533	138.66638	-227.35352	233.78220	4.41992	-284.43384	-102.24390	26.95182	380.68707	205.87692	157.11716	376.86948	-125.45213	1208.58386	-394.34174	-79.92136	577.51318	-400.20996	79.72908	582.61816	-412.02979	-9.37444	564.37146	542.96423	141.38638	562.78009	531.44635	
2537	25.360	-200.84457	143.73621	-234.26588	233.05609	3.81782	-284.83722	-102.82432	27.34287	380.28299	204.83463	161.40083	370.73862	-126.69945	1207.02905	-398.42325	-81.02815	576.46484	-402.35199	78.79310	581.59033	-413.97598	-11.51756	565.20148	541.20770	138.90475	563.69806	529.67389	
2538	25.370	-203.17052	146.16118	-240.65698	232.45746	3.11722	-285.27716	-103.13941	27.50436	379.92581	203.37083	163.04619	364.23062	-127.94081	1206.19434	-402.23135	-82.14374	575.57562	-404.24637	78.13515	580.71692	-416.03635	-13.76341	566.19434	539.48676	144.83089	566.87585	531.04224	
2539	25.380	-205.44415	146.13831	-246.36807	232.11366	2.68057	-285.29153	-103.62376	28.07913	379.61163	202.38545	163.55914	358.39252	-129.24385	1205.72156	-405.81046	-82.86147	574.76666	-406.13159	77.00822	579.83337	-417.90164	-15.91768	567.33417	537.64520	142.74825	568.07886	529.58319	
2540	25.390	-207.50290	143.29907	-251.55139	231.72218	2.30856	-285.49295	-104.18403	28.81278	379.17551	201.03783	161.50951	352.30820	-130.72043	1204.87402	-408.64609	-83.66341	573.81714	-407.97668	75.42218	578.91968	-419.09268	-18.19003	568.67487	535.67932	140.14090	569.07764	527.96265	
2541	25.400	-208.80104	138.65376	-256.71585	231.41338	1.99820	-285.59204	-104.64786	29.29456	378.67465	199.14227	158.51520	346.74994	-131.77231	1204.13477	-411.68478	-84.76677	572.73145	-409.65680	74.10940	577.83630	-420.59824	-20.99709	569.92511	533.95160	137.24901	570.28986	526.46387	
2542	25.410	-209.54178	133.07120	-262.34021	230.97322	1.62215	-285.75616	-105.14594	29.50322	378.32822	195.61659	154.51350	341.42001	-132.83026	1203.34070	-414.31790	-86.11813	571.77307	-411.38330	73.03326	576.83386	-422.39047	-23.46211	571.04669	532.34534	134.73521	571.40533	524.94775	
2543	25.420	-210.92055	127.16157	-268.34528	230.41069	1.05890	-286.05405	-105.39526	29.70518	378.14120	192.46754	149.47130	336.17435	-133.92938	1202.35266	-417.46277	-87.44304	570.76672	-413.19681	71.57162	576.15314	-423.78741	-25.94706	571.86591	530.61603	132.15741	572.12427	523.33313	
2544	25.430	-212.57315	121.00040	-274.91034	230.12018	0.66963	-286.25140	-105.47047	29.44482	377.93970	189.02252	143.16676	330.70169	-134.97755	1201.51929	-420.83118	-88.80769	569.78674	-414.98318	70.84797	575.07477	-425.42581	-29.13547	572.45892	529.09601	129.41473	573.04425	521.80817	
2545	25.440	-215.13980	115.08598	-282.23181	229.94547	0.18374	-286.26346	-105.81862	29.93303	377.70215	185.87050	135.88602	324.81979	-136.84004	1200.66113	-423.87442	-90.89530	569.41302	-417.04791	69.48761	574.45667	-427.04498	-32.20124	573.14783	527.34314	126.56105	573.74866	520.49750	
2546	25.450	-217.96802	109.28371	-289.79114	229.82617	-0.07226	-286.25073	-106.23186	30.54767	377.39136	182.86447	127.57352	319.10397	-138.49231	1199.74976	-426.61191	-92.26938	568.50000	-419.01654	68.27425	573.64087	-428.80835	-35.14924	573.85718	525.43488	123.37107	574.57208	519.01355	
2547	25.460	-220.21246	102.24226	-297.11005	229.60976	-0.34771	-286.34976	-106.35242	30.84110	377.05524	178.69870	118.51137	313.20203	-140.47464	1198.69299	-429.38104	-93.64607	567.93152	-421.03284	66.98112	572.73114	-430.22867	-38.40066	574.12762	523.88269	116.68840	571.92975	513.85303	
